<?xml version="1.0" encoding="utf-8"?>
<!-- Generator: Adobe Illustrator 24.3.0, SVG Export Plug-In . SVG Version: 6.00 Build 0)  -->
<svg version="1.1" id="레이어_1" xmlns="http://www.w3.org/2000/svg" xmlns:xlink="http://www.w3.org/1999/xlink" x="0px"
	 y="0px" viewBox="0 0 425.2 283.46" style="enable-background:new 0 0 425.2 283.46;" xml:space="preserve">
<style type="text/css">
	.st0{fill:none;stroke:#867E7F;stroke-miterlimit:10;}
</style>
<path class="st0" d="M141.99,148.23c0,0-1.72,3.18,1.25,10.89c2.97,7.71,0.66-2.91,3.81,4.63s4.52,10.81,4.52,10.81l0.85,7.36
	c0,0,8.73,16.24,6.51,9.96s-0.79-1.67,2.55,6.59c3.34,8.27,4.31,6.36,4.31,6.36s5.7,10.68,12.27,0.38
	c-3.84-12.68-11.71-42.2-7.63-45.65c10.81,3.23,4.03,3.92,21.51,5.54c9.3,8.22,9.57,2.82,19.61,9.72c10.04,6.9,8.66,5.27,8.66,5.27
	s13.36,2.04,22.12,8.2c11.73-4.33,13.59-6.33,13.59-6.33s-5.53-9.21-7.56-8.68s40.85-13.04,63.78-41.92
	c14.45-4.05,50.11-12.91,52.88-35.6c-11.11,4.56-18.33,3.99-18.33,3.99s-4.33-1.39-28.65,7.67c-8.42-10.96-9.09,1.34-23.99-19.31
	c-5.95,18.28,4.17,31.13,4.17,31.13s-14.13,9.38-32.2,0.12c0,0,0.44-3.93-1.21-7.91s-12.84,5.05-23.78,3.33
	c-10.94-1.73-79.4-23.98-103.38-30.18c-8.63-7.66-22.12-8.2-31.02-7.77c-8.9,0.43-24.8-9.03-35.15-2.23
	c-6.76-4.29-10.3,1.18-10.3,1.18l-0.81,3.37c0,0,1.03,3.76,3.66,8.53c-5.1,2.37,1.05,9.13,1.05,9.13l10.79,5.62
	c0,0,9.8,4.84,25.13,18.88S137.44,147.56,141.99,148.23z"/>
<path class="st0" d="M179.41,138.42c0.66-0.08,7.93,0.88,7.93,0.88s-3.28,2.61,4.52,2.39c7.8-0.23,6.74-3.68,14.36,0.36
	c7.62,4.05,12.28,3.73,17.21,9.65s6.14,8.69,10.32,10c4.18,1.31,2.94,4.14,6.36,6.65c3.42,2.52,8.25,4.94,8.25,4.94"/>
<path class="st0" d="M64.72,73.24c0,0,12.93,8.12,28.31,9.63c15.38,1.51,36.7,10.52,46.65,16.62c2.82,9.01,8.75,8.63,8.75,8.63"/>
<path class="st0" d="M187.83,164.7c0,0-26.21-27.37-48.34-38.25s-22.01-22.82-22.01-22.82l-3.57-15.77"/>
<path class="st0" d="M105.96,85.4c0,0-0.29,34.14,31.31,50.25s37.73,24.67,37.73,24.67"/>
<path class="st0" d="M100.35,84.04c0,0-11.89,36.94,70.09,75.54"/>
<path class="st0" d="M87.45,82.04c0,0,5.55,35.85,24.93,48.67"/>
<path class="st0" d="M81.05,80.41c0,0,1.89,27.19,14.6,36.16"/>
<path class="st0" d="M71.36,76.71c0,0-4.04,15.97,4.53,25.73"/>
<path class="st0" d="M67.48,74.81c0,0-5.22,10.49,2.84,24.73"/>
<line class="st0" x1="241.04" y1="114.79" x2="256.52" y2="118.38"/>
<polyline class="st0" points="314.94,108.98 307.55,114.75 298.22,119.25 "/>
</svg>
